<?xml version="1.0" encoding="UTF-8" standalone="no"?><svg xmlns="http://www.w3.org/2000/svg" xmlns:xlink="http://www.w3.org/1999/xlink" contentStyleType="text/css" height="365px" preserveAspectRatio="none" style="width:2803px;height:365px;background:#FFFFFF;" version="1.1" viewBox="0 0 2803 365" width="2803px" zoomAndPan="magnify"><defs/><g><!--MD5=[75b042864f9bf695587ee874703bdc85]
cluster Flask App--><g id="cluster_Flask App"><path d="M8.5,6 L77.5,6 A3.75,3.75 0 0 1 80,8.5 L87,29.6094 L2793.5,29.6094 A2.5,2.5 0 0 1 2796,32.1094 L2796,355.5 A2.5,2.5 0 0 1 2793.5,358 L8.5,358 A2.5,2.5 0 0 1 6,355.5 L6,8.5 A2.5,2.5 0 0 1 8.5,6 " fill="none" style="stroke:#000000;stroke-width:1.5;"/><line style="stroke:#000000;stroke-width:1.5;" x1="6" x2="87" y1="29.6094" y2="29.6094"/><text fill="#000000" font-family="sans-serif" font-size="14" font-weight="bold" lengthAdjust="spacing" textLength="68" x="10" y="22.5332">Flask App</text></g><!--MD5=[ddfbe58de4e7a3b3ef8b78145eab9157]
entity flask--><g id="elem_flask"><rect fill="#F1F1F1" height="47.6094" rx="2.5" ry="2.5" style="stroke:#181818;stroke-width:0.5;" width="103" x="2046.5" y="42"/><rect fill="#F1F1F1" height="10" style="stroke:#181818;stroke-width:0.5;" width="15" x="2129.5" y="47"/><rect fill="#F1F1F1" height="2" style="stroke:#181818;stroke-width:0.5;" width="4" x="2127.5" y="49"/><rect fill="#F1F1F1" height="2" style="stroke:#181818;stroke-width:0.5;" width="4" x="2127.5" y="53"/><text fill="#000000" font-family="sans-serif" font-size="14" lengthAdjust="spacing" textLength="63" x="2061.5" y="76.5332">Flask App</text></g><!--MD5=[caf660ac2a54b55a5c31b5515889e628]
entity config--><g id="elem_config"><rect fill="#F1F1F1" height="47.6094" rx="2.5" ry="2.5" style="stroke:#181818;stroke-width:0.5;" width="118" x="849" y="168"/><rect fill="#F1F1F1" height="10" style="stroke:#181818;stroke-width:0.5;" width="15" x="947" y="173"/><rect fill="#F1F1F1" height="2" style="stroke:#181818;stroke-width:0.5;" width="4" x="945" y="175"/><rect fill="#F1F1F1" height="2" style="stroke:#181818;stroke-width:0.5;" width="4" x="945" y="179"/><text fill="#000000" font-family="sans-serif" font-size="14" lengthAdjust="spacing" textLength="78" x="864" y="202.5332">config_page</text></g><!--MD5=[7edcefaa406c65155265f04249a95b70]
entity file--><g id="elem_file"><rect fill="#F1F1F1" height="47.6094" rx="2.5" ry="2.5" style="stroke:#181818;stroke-width:0.5;" width="98" x="1949" y="168"/><rect fill="#F1F1F1" height="10" style="stroke:#181818;stroke-width:0.5;" width="15" x="2027" y="173"/><rect fill="#F1F1F1" height="2" style="stroke:#181818;stroke-width:0.5;" width="4" x="2025" y="175"/><rect fill="#F1F1F1" height="2" style="stroke:#181818;stroke-width:0.5;" width="4" x="2025" y="179"/><text fill="#000000" font-family="sans-serif" font-size="14" lengthAdjust="spacing" textLength="58" x="1964" y="202.5332">file_page</text></g><!--MD5=[cc0b6f262df5a2b8e82a805a09600c41]
entity cam--><g id="elem_cam"><rect fill="#F1F1F1" height="47.6094" rx="2.5" ry="2.5" style="stroke:#181818;stroke-width:0.5;" width="151" x="2122.5" y="168"/><rect fill="#F1F1F1" height="10" style="stroke:#181818;stroke-width:0.5;" width="15" x="2253.5" y="173"/><rect fill="#F1F1F1" height="2" style="stroke:#181818;stroke-width:0.5;" width="4" x="2251.5" y="175"/><rect fill="#F1F1F1" height="2" style="stroke:#181818;stroke-width:0.5;" width="4" x="2251.5" y="179"/><text fill="#000000" font-family="sans-serif" font-size="14" lengthAdjust="spacing" textLength="111" x="2137.5" y="202.5332">cam_page_async</text></g><!--MD5=[2b2d5ad518bf6746de4ffeb5be0566d4]
entity manager--><g id="elem_manager"><rect fill="#F1F1F1" height="47.6094" rx="2.5" ry="2.5" style="stroke:#181818;stroke-width:0.5;" width="184" x="2596" y="294"/><rect fill="#F1F1F1" height="10" style="stroke:#181818;stroke-width:0.5;" width="15" x="2760" y="299"/><rect fill="#F1F1F1" height="2" style="stroke:#181818;stroke-width:0.5;" width="4" x="2758" y="301"/><rect fill="#F1F1F1" height="2" style="stroke:#181818;stroke-width:0.5;" width="4" x="2758" y="305"/><text fill="#000000" font-family="sans-serif" font-size="14" lengthAdjust="spacing" textLength="144" x="2611" y="328.5332">detect_tasks_manager</text></g><!--MD5=[f2b19f00d1ca585e153757d1c3b57d3b]
entity socketio--><g id="elem_socketio"><rect fill="#F1F1F1" height="47.6094" rx="2.5" ry="2.5" style="stroke:#181818;stroke-width:0.5;" width="97" x="2308.5" y="168"/><rect fill="#F1F1F1" height="10" style="stroke:#181818;stroke-width:0.5;" width="15" x="2385.5" y="173"/><rect fill="#F1F1F1" height="2" style="stroke:#181818;stroke-width:0.5;" width="4" x="2383.5" y="175"/><rect fill="#F1F1F1" height="2" style="stroke:#181818;stroke-width:0.5;" width="4" x="2383.5" y="179"/><text fill="#000000" font-family="sans-serif" font-size="14" lengthAdjust="spacing" textLength="57" x="2323.5" y="202.5332">SocketIO</text></g><!--MD5=[b30b38ce4569dacde3f8306bd4ec7604]
entity index--><g id="elem_index"><rect fill="#F1F1F1" height="47.6094" rx="2.5" ry="2.5" style="stroke:#181818;stroke-width:0.5;" width="103" x="1500.5" y="294"/><rect fill="#F1F1F1" height="10" style="stroke:#181818;stroke-width:0.5;" width="15" x="1583.5" y="299"/><rect fill="#F1F1F1" height="2" style="stroke:#181818;stroke-width:0.5;" width="4" x="1581.5" y="301"/><rect fill="#F1F1F1" height="2" style="stroke:#181818;stroke-width:0.5;" width="4" x="1581.5" y="305"/><text fill="#000000" font-family="sans-serif" font-size="14" lengthAdjust="spacing" textLength="63" x="1515.5" y="328.5332">index.html</text></g><!--MD5=[7446d2579388477f7abc1b66ada8b7c0]
entity async--><g id="elem_async"><rect fill="#F1F1F1" height="47.6094" rx="2.5" ry="2.5" style="stroke:#181818;stroke-width:0.5;" width="107" x="2440.5" y="168"/><rect fill="#F1F1F1" height="10" style="stroke:#181818;stroke-width:0.5;" width="15" x="2527.5" y="173"/><rect fill="#F1F1F1" height="2" style="stroke:#181818;stroke-width:0.5;" width="4" x="2525.5" y="175"/><rect fill="#F1F1F1" height="2" style="stroke:#181818;stroke-width:0.5;" width="4" x="2525.5" y="179"/><text fill="#000000" font-family="sans-serif" font-size="14" lengthAdjust="spacing" textLength="67" x="2455.5" y="202.5332">async.html</text></g><!--MD5=[5326d2f87b43b862a889e275285bf0b7]
entity gen_frame_stream--><g id="elem_gen_frame_stream"><rect fill="#F1F1F1" height="47.6094" rx="2.5" ry="2.5" style="stroke:#181818;stroke-width:0.5;" width="159" x="2401.5" y="294"/><rect fill="#F1F1F1" height="10" style="stroke:#181818;stroke-width:0.5;" width="15" x="2540.5" y="299"/><rect fill="#F1F1F1" height="2" style="stroke:#181818;stroke-width:0.5;" width="4" x="2538.5" y="301"/><rect fill="#F1F1F1" height="2" style="stroke:#181818;stroke-width:0.5;" width="4" x="2538.5" y="305"/><text fill="#000000" font-family="sans-serif" font-size="14" lengthAdjust="spacing" textLength="119" x="2416.5" y="328.5332">gen_frame_stream</text></g><!--MD5=[0661d207f3c6591df093dbff46eda963]
entity config_files--><g id="elem_config_files"><rect fill="#F1F1F1" height="47.6094" rx="2.5" ry="2.5" style="stroke:#181818;stroke-width:0.5;" width="111" x="186.5" y="294"/><rect fill="#F1F1F1" height="10" style="stroke:#181818;stroke-width:0.5;" width="15" x="277.5" y="299"/><rect fill="#F1F1F1" height="2" style="stroke:#181818;stroke-width:0.5;" width="4" x="275.5" y="301"/><rect fill="#F1F1F1" height="2" style="stroke:#181818;stroke-width:0.5;" width="4" x="275.5" y="305"/><text fill="#000000" font-family="sans-serif" font-size="14" lengthAdjust="spacing" textLength="71" x="201.5" y="328.5332">config_files</text></g><!--MD5=[ec13d1d68b35cd18ef1bd682889af1f9]
entity is_bool--><g id="elem_is_bool"><rect fill="#F1F1F1" height="47.6094" rx="2.5" ry="2.5" style="stroke:#181818;stroke-width:0.5;" width="85" x="332.5" y="294"/><rect fill="#F1F1F1" height="10" style="stroke:#181818;stroke-width:0.5;" width="15" x="397.5" y="299"/><rect fill="#F1F1F1" height="2" style="stroke:#181818;stroke-width:0.5;" width="4" x="395.5" y="301"/><rect fill="#F1F1F1" height="2" style="stroke:#181818;stroke-width:0.5;" width="4" x="395.5" y="305"/><text fill="#000000" font-family="sans-serif" font-size="14" lengthAdjust="spacing" textLength="45" x="347.5" y="328.5332">is_bool</text></g><!--MD5=[5d27fb5b2cbc02bacd60ce1fab322758]
entity is_int--><g id="elem_is_int"><rect fill="#F1F1F1" height="47.6094" rx="2.5" ry="2.5" style="stroke:#181818;stroke-width:0.5;" width="73" x="452.5" y="294"/><rect fill="#F1F1F1" height="10" style="stroke:#181818;stroke-width:0.5;" width="15" x="505.5" y="299"/><rect fill="#F1F1F1" height="2" style="stroke:#181818;stroke-width:0.5;" width="4" x="503.5" y="301"/><rect fill="#F1F1F1" height="2" style="stroke:#181818;stroke-width:0.5;" width="4" x="503.5" y="305"/><text fill="#000000" font-family="sans-serif" font-size="14" lengthAdjust="spacing" textLength="33" x="467.5" y="328.5332">is_int</text></g><!--MD5=[70bd4b1339b10b8f2e347d4a548426e9]
entity inject_enumerate--><g id="elem_inject_enumerate"><rect fill="#F1F1F1" height="47.6094" rx="2.5" ry="2.5" style="stroke:#181818;stroke-width:0.5;" width="149" x="560.5" y="294"/><rect fill="#F1F1F1" height="10" style="stroke:#181818;stroke-width:0.5;" width="15" x="689.5" y="299"/><rect fill="#F1F1F1" height="2" style="stroke:#181818;stroke-width:0.5;" width="4" x="687.5" y="301"/><rect fill="#F1F1F1" height="2" style="stroke:#181818;stroke-width:0.5;" width="4" x="687.5" y="305"/><text fill="#000000" font-family="sans-serif" font-size="14" lengthAdjust="spacing" textLength="109" x="575.5" y="328.5332">inject_enumerate</text></g><!--MD5=[ac72edd0fc6afd8b2547a0413a0f40a9]
entity get_facerec_image--><g id="elem_get_facerec_image"><rect fill="#F1F1F1" height="47.6094" rx="2.5" ry="2.5" style="stroke:#181818;stroke-width:0.5;" width="161" x="744.5" y="294"/><rect fill="#F1F1F1" height="10" style="stroke:#181818;stroke-width:0.5;" width="15" x="885.5" y="299"/><rect fill="#F1F1F1" height="2" style="stroke:#181818;stroke-width:0.5;" width="4" x="883.5" y="301"/><rect fill="#F1F1F1" height="2" style="stroke:#181818;stroke-width:0.5;" width="4" x="883.5" y="305"/><text fill="#000000" font-family="sans-serif" font-size="14" lengthAdjust="spacing" textLength="121" x="759.5" y="328.5332">get_facerec_image</text></g><!--MD5=[e12be1e59424df4534873adffeab7bb2]
entity read_config--><g id="elem_read_config"><rect fill="#F1F1F1" height="47.6094" rx="2.5" ry="2.5" style="stroke:#181818;stroke-width:0.5;" width="115" x="940.5" y="294"/><rect fill="#F1F1F1" height="10" style="stroke:#181818;stroke-width:0.5;" width="15" x="1035.5" y="299"/><rect fill="#F1F1F1" height="2" style="stroke:#181818;stroke-width:0.5;" width="4" x="1033.5" y="301"/><rect fill="#F1F1F1" height="2" style="stroke:#181818;stroke-width:0.5;" width="4" x="1033.5" y="305"/><text fill="#000000" font-family="sans-serif" font-size="14" lengthAdjust="spacing" textLength="75" x="955.5" y="328.5332">read_config</text></g><!--MD5=[7b7c0536a243abe3166b32c47e99ae3d]
entity save_config--><g id="elem_save_config"><rect fill="#F1F1F1" height="47.6094" rx="2.5" ry="2.5" style="stroke:#181818;stroke-width:0.5;" width="116" x="1091" y="294"/><rect fill="#F1F1F1" height="10" style="stroke:#181818;stroke-width:0.5;" width="15" x="1187" y="299"/><rect fill="#F1F1F1" height="2" style="stroke:#181818;stroke-width:0.5;" width="4" x="1185" y="301"/><rect fill="#F1F1F1" height="2" style="stroke:#181818;stroke-width:0.5;" width="4" x="1185" y="305"/><text fill="#000000" font-family="sans-serif" font-size="14" lengthAdjust="spacing" textLength="76" x="1106" y="328.5332">save_config</text></g><!--MD5=[31b21fb70010ea497407a87b0269b7ad]
entity edit--><g id="elem_edit"><rect fill="#F1F1F1" height="47.6094" rx="2.5" ry="2.5" style="stroke:#181818;stroke-width:0.5;" width="63" x="1242.5" y="294"/><rect fill="#F1F1F1" height="10" style="stroke:#181818;stroke-width:0.5;" width="15" x="1285.5" y="299"/><rect fill="#F1F1F1" height="2" style="stroke:#181818;stroke-width:0.5;" width="4" x="1283.5" y="301"/><rect fill="#F1F1F1" height="2" style="stroke:#181818;stroke-width:0.5;" width="4" x="1283.5" y="305"/><text fill="#000000" font-family="sans-serif" font-size="14" lengthAdjust="spacing" textLength="23" x="1257.5" y="328.5332">edit</text></g><!--MD5=[266989e9830bde52ba0dfd26ec4b04e3]
entity delete_image--><g id="elem_delete_image"><rect fill="#F1F1F1" height="47.6094" rx="2.5" ry="2.5" style="stroke:#181818;stroke-width:0.5;" width="125" x="1340.5" y="294"/><rect fill="#F1F1F1" height="10" style="stroke:#181818;stroke-width:0.5;" width="15" x="1445.5" y="299"/><rect fill="#F1F1F1" height="2" style="stroke:#181818;stroke-width:0.5;" width="4" x="1443.5" y="301"/><rect fill="#F1F1F1" height="2" style="stroke:#181818;stroke-width:0.5;" width="4" x="1443.5" y="305"/><text fill="#000000" font-family="sans-serif" font-size="14" lengthAdjust="spacing" textLength="85" x="1355.5" y="328.5332">delete_image</text></g><!--MD5=[761b860e816735f43a4bfa2d9aa36028]
entity upload_image--><g id="elem_upload_image"><rect fill="#F1F1F1" height="47.6094" rx="2.5" ry="2.5" style="stroke:#181818;stroke-width:0.5;" width="129" x="22.5" y="294"/><rect fill="#F1F1F1" height="10" style="stroke:#181818;stroke-width:0.5;" width="15" x="131.5" y="299"/><rect fill="#F1F1F1" height="2" style="stroke:#181818;stroke-width:0.5;" width="4" x="129.5" y="301"/><rect fill="#F1F1F1" height="2" style="stroke:#181818;stroke-width:0.5;" width="4" x="129.5" y="305"/><text fill="#000000" font-family="sans-serif" font-size="14" lengthAdjust="spacing" textLength="89" x="37.5" y="328.5332">upload_image</text></g><!--MD5=[83bbe0b540cb9a2be77013b05ece1e25]
entity root_folder_path--><g id="elem_root_folder_path"><rect fill="#F1F1F1" height="47.6094" rx="2.5" ry="2.5" style="stroke:#181818;stroke-width:0.5;" width="145" x="1638.5" y="294"/><rect fill="#F1F1F1" height="10" style="stroke:#181818;stroke-width:0.5;" width="15" x="1763.5" y="299"/><rect fill="#F1F1F1" height="2" style="stroke:#181818;stroke-width:0.5;" width="4" x="1761.5" y="301"/><rect fill="#F1F1F1" height="2" style="stroke:#181818;stroke-width:0.5;" width="4" x="1761.5" y="305"/><text fill="#000000" font-family="sans-serif" font-size="14" lengthAdjust="spacing" textLength="105" x="1653.5" y="328.5332">root_folder_path</text></g><!--MD5=[a7cc446d738b1c7db95d32bafe939164]
entity download--><g id="elem_download"><rect fill="#F1F1F1" height="47.6094" rx="2.5" ry="2.5" style="stroke:#181818;stroke-width:0.5;" width="100" x="1819" y="294"/><rect fill="#F1F1F1" height="10" style="stroke:#181818;stroke-width:0.5;" width="15" x="1899" y="299"/><rect fill="#F1F1F1" height="2" style="stroke:#181818;stroke-width:0.5;" width="4" x="1897" y="301"/><rect fill="#F1F1F1" height="2" style="stroke:#181818;stroke-width:0.5;" width="4" x="1897" y="305"/><text fill="#000000" font-family="sans-serif" font-size="14" lengthAdjust="spacing" textLength="60" x="1834" y="328.5332">download</text></g><!--MD5=[4a25415281e815767a329b93358bb1b9]
entity preview--><g id="elem_preview"><rect fill="#F1F1F1" height="47.6094" rx="2.5" ry="2.5" style="stroke:#181818;stroke-width:0.5;" width="88" x="1954" y="294"/><rect fill="#F1F1F1" height="10" style="stroke:#181818;stroke-width:0.5;" width="15" x="2022" y="299"/><rect fill="#F1F1F1" height="2" style="stroke:#181818;stroke-width:0.5;" width="4" x="2020" y="301"/><rect fill="#F1F1F1" height="2" style="stroke:#181818;stroke-width:0.5;" width="4" x="2020" y="305"/><text fill="#000000" font-family="sans-serif" font-size="14" lengthAdjust="spacing" textLength="48" x="1969" y="328.5332">preview</text></g><!--MD5=[7ad2306dce5ab76d656c16935c9bacc5]
entity browse--><g id="elem_browse"><rect fill="#F1F1F1" height="47.6094" rx="2.5" ry="2.5" style="stroke:#181818;stroke-width:0.5;" width="85" x="2077.5" y="294"/><rect fill="#F1F1F1" height="10" style="stroke:#181818;stroke-width:0.5;" width="15" x="2142.5" y="299"/><rect fill="#F1F1F1" height="2" style="stroke:#181818;stroke-width:0.5;" width="4" x="2140.5" y="301"/><rect fill="#F1F1F1" height="2" style="stroke:#181818;stroke-width:0.5;" width="4" x="2140.5" y="305"/><text fill="#000000" font-family="sans-serif" font-size="14" lengthAdjust="spacing" textLength="45" x="2092.5" y="328.5332">browse</text></g><!--MD5=[df45bbbb960c5d067e9b70b423f1e37f]
entity get_folder_structure--><g id="elem_get_folder_structure"><rect fill="#F1F1F1" height="47.6094" rx="2.5" ry="2.5" style="stroke:#181818;stroke-width:0.5;" width="168" x="2198" y="294"/><rect fill="#F1F1F1" height="10" style="stroke:#181818;stroke-width:0.5;" width="15" x="2346" y="299"/><rect fill="#F1F1F1" height="2" style="stroke:#181818;stroke-width:0.5;" width="4" x="2344" y="301"/><rect fill="#F1F1F1" height="2" style="stroke:#181818;stroke-width:0.5;" width="4" x="2344" y="305"/><text fill="#000000" font-family="sans-serif" font-size="14" lengthAdjust="spacing" textLength="128" x="2213" y="328.5332">get_folder_structure</text></g><!--MD5=[7e4519b6caf6a8ae9c2d93b9d544385e]
link flask to config--><g id="link_flask_config"><path d="M2046.42,71.35 C1945.72,79.94 1715.95,99.97 1523,120 C1322,140.86 1084.51,169.38 972.55,183.05 " fill="none" id="flask-to-config" style="stroke:#181818;stroke-width:1.0;"/><polygon fill="#181818" points="967.32,183.69,976.7354,186.5796,972.2838,183.0892,975.7741,178.6375,967.32,183.69" style="stroke:#181818;stroke-width:1.0;"/><text fill="#000000" font-family="sans-serif" font-size="13" lengthAdjust="spacing" textLength="51" x="1524" y="134.4951">Blueprint</text></g><!--MD5=[a025139751ef18d3bba47f187eb68ce9]
link flask to file--><g id="link_flask_file"><path d="M2079.43,90.03 C2062.62,110.87 2037.86,141.58 2020.05,163.65 " fill="none" id="flask-to-file" style="stroke:#181818;stroke-width:1.0;"/><polygon fill="#181818" points="2016.81,167.67,2025.5718,163.1722,2019.9474,163.7768,2019.3427,158.1524,2016.81,167.67" style="stroke:#181818;stroke-width:1.0;"/><text fill="#000000" font-family="sans-serif" font-size="13" lengthAdjust="spacing" textLength="51" x="2054" y="134.4951">Blueprint</text></g><!--MD5=[89a79dc72328b0143a98a5b1c4df7e6b]
link flask to cam--><g id="link_flask_cam"><path d="M2116.57,90.03 C2133.38,110.87 2158.14,141.58 2175.95,163.65 " fill="none" id="flask-to-cam" style="stroke:#181818;stroke-width:1.0;"/><polygon fill="#181818" points="2179.19,167.67,2176.6573,158.1524,2176.0526,163.7768,2170.4282,163.1722,2179.19,167.67" style="stroke:#181818;stroke-width:1.0;"/><text fill="#000000" font-family="sans-serif" font-size="13" lengthAdjust="spacing" textLength="51" x="2154" y="134.4951">Blueprint</text></g><!--MD5=[e749309fb1e0f7b0f25bedc4f3d355dc]
link flask to index--><g id="link_flask_index"><path d="M2046.28,85.06 C1993.11,104.09 1908.25,135.71 1837,168 C1750.44,207.23 1652.99,260.16 1597.4,291.23 " fill="none" id="flask-to-index" style="stroke:#181818;stroke-width:1.0;"/><polygon fill="#181818" points="1592.81,293.8,1602.6178,292.9014,1597.1747,291.3609,1598.7152,285.9178,1592.81,293.8" style="stroke:#181818;stroke-width:1.0;"/><text fill="#000000" font-family="sans-serif" font-size="13" lengthAdjust="spacing" textLength="93" x="1838" y="197.4951">render_template</text></g><!--MD5=[79da4593e7f3fd9044d57cc5115c3415]
link flask to async--><g id="link_flask_async"><path d="M2149.79,77.75 C2193.67,87.34 2258.04,102.53 2313,120 C2354.87,133.31 2400.95,151.44 2436.14,166.04 " fill="none" id="flask-to-async" style="stroke:#181818;stroke-width:1.0;"/><polygon fill="#181818" points="2440.81,167.99,2434.0486,160.8287,2436.1967,166.0619,2430.9636,168.21,2440.81,167.99" style="stroke:#181818;stroke-width:1.0;"/><text fill="#000000" font-family="sans-serif" font-size="13" lengthAdjust="spacing" textLength="93" x="2364" y="134.4951">render_template</text></g><!--MD5=[322ccb8b5395b196f206eddec90d5d31]
link flask to socketio--><g id="link_flask_socketio"><path d="M2149.56,90.13 C2169.73,99.29 2193.01,110 2214,120 C2244.99,134.77 2279.46,151.86 2306.79,165.58 " fill="none" id="flask-to-socketio" style="stroke:#181818;stroke-width:1.0;"/><polygon fill="#181818" points="2311.46,167.92,2305.2281,160.2935,2306.9965,165.6668,2301.6231,167.4351,2311.46,167.92" style="stroke:#181818;stroke-width:1.0;"/><text fill="#000000" font-family="sans-serif" font-size="13" lengthAdjust="spacing" textLength="54" x="2250" y="134.4951">SocketIO</text></g><!--MD5=[b991cd70c579b0f735bbef9f9fd70dc3]
link cam to manager--><g id="link_cam_manager"><path d="M2273.76,212.17 C2359.4,233.84 2498.99,269.17 2592.14,292.74 " fill="none" id="cam-to-manager" style="stroke:#181818;stroke-width:1.0;stroke-dasharray:7.0,7.0;"/><polygon fill="#181818" points="2597.1,294,2589.3557,287.9152,2592.2527,292.7739,2587.3939,295.6709,2597.1,294" style="stroke:#181818;stroke-width:1.0;"/><text fill="#000000" font-family="sans-serif" font-size="13" lengthAdjust="spacing" textLength="36" x="2473" y="260.4951">import</text></g><!--MD5=[789c5a6c94e99df2e28f13e14cc21bd9]
link cam to gen_frame_stream--><g id="link_cam_gen_frame_stream"><path d="M2250.57,216.03 C2299.65,237.54 2372.76,269.57 2423.41,291.76 " fill="none" id="cam-to-gen_frame_stream" style="stroke:#181818;stroke-width:1.0;stroke-dasharray:7.0,7.0;"/><polygon fill="#181818" points="2428.24,293.88,2421.6086,286.5982,2423.6622,291.8692,2418.3912,293.9228,2428.24,293.88" style="stroke:#181818;stroke-width:1.0;"/><text fill="#000000" font-family="sans-serif" font-size="13" lengthAdjust="spacing" textLength="36" x="2357" y="260.4951">import</text></g><!--MD5=[8f1b1b99d118b915c575398b801256a2]
link socketio to manager--><g id="link_socketio_manager"><path d="M2405.77,210.9 C2411.54,212.74 2417.37,214.49 2423,216 C2492.05,234.48 2514.8,219.04 2581,246 C2607.99,256.99 2635.31,275.27 2655.59,290.52 " fill="none" id="socketio-to-manager" style="stroke:#181818;stroke-width:1.0;"/><polygon fill="#181818" points="2659.81,293.73,2655.0641,285.1,2655.8289,290.7049,2650.224,291.4698,2659.81,293.73" style="stroke:#181818;stroke-width:1.0;"/><text fill="#000000" font-family="sans-serif" font-size="13" lengthAdjust="spacing" textLength="107" x="2616" y="260.4951">gen_frame_stream</text></g><!--MD5=[ca024787c5c24247aaac12077448c5b0]
link config to config_files--><g id="link_config_config_files"><path d="M848.57,195.19 C724.98,200.32 444.26,215.07 354,246 C324.8,256.01 295.47,275 274.15,290.83 " fill="none" id="config-to-config_files" style="stroke:#181818;stroke-width:1.0;stroke-dasharray:7.0,7.0;"/><polygon fill="#181818" points="270,293.95,279.595,291.7281,273.9931,290.9409,274.7804,285.3391,270,293.95" style="stroke:#181818;stroke-width:1.0;"/><text fill="#000000" font-family="sans-serif" font-size="13" lengthAdjust="spacing" textLength="65" x="355" y="260.4951">Read/Write</text></g><!--MD5=[23f287c20e766c2c80ec927662f88dbc]
link config to is_bool--><g id="link_config_is_bool"><path d="M848.6,195.71 C742.88,201.24 526.74,215.93 458,246 C435.26,255.95 414.07,274.29 398.8,289.84 " fill="none" id="config-to-is_bool" style="stroke:#181818;stroke-width:1.0;stroke-dasharray:7.0,7.0;"/><polygon fill="#181818" points="395.04,293.72,404.1666,290.0179,398.5107,290.1208,398.4078,284.4649,395.04,293.72" style="stroke:#181818;stroke-width:1.0;"/><text fill="#000000" font-family="sans-serif" font-size="13" lengthAdjust="spacing" textLength="81" x="459" y="260.4951">Register Filter</text></g><!--MD5=[19ea1a9d952e9f8eae2143000bab715d]
link config to is_int--><g id="link_config_is_int"><path d="M848.74,193.66 C780.85,196.4 667.59,207.09 579,246 C555.11,256.49 532.09,274.85 515.31,290.28 " fill="none" id="config-to-is_int" style="stroke:#181818;stroke-width:1.0;stroke-dasharray:7.0,7.0;"/><polygon fill="#181818" points="511.61,293.72,520.9183,290.5021,515.2648,290.3079,515.459,284.6544,511.61,293.72" style="stroke:#181818;stroke-width:1.0;"/><text fill="#000000" font-family="sans-serif" font-size="13" lengthAdjust="spacing" textLength="81" x="580" y="260.4951">Register Filter</text></g><!--MD5=[96469e5f093d3c0245dabb31c9b86574]
link config to inject_enumerate--><g id="link_config_inject_enumerate"><path d="M848.62,196.99 C802.51,202.45 738.63,215.39 691,246 C674.24,256.77 660.34,274.3 650.58,289.25 " fill="none" id="config-to-inject_enumerate" style="stroke:#181818;stroke-width:1.0;stroke-dasharray:7.0,7.0;"/><polygon fill="#181818" points="647.69,293.8,655.9001,288.3599,650.3772,289.5835,649.1536,284.0605,647.69,293.8" style="stroke:#181818;stroke-width:1.0;"/><text fill="#000000" font-family="sans-serif" font-size="13" lengthAdjust="spacing" textLength="160" x="692" y="260.4951">Register Context Processor</text></g><!--MD5=[b2a0462ccd56b769555d66e821955dee]
link config to get_facerec_image--><g id="link_config_get_facerec_image"><path d="M892.58,216.03 C878.69,236.78 858.25,267.32 843.49,289.38 " fill="none" id="config-to-get_facerec_image" style="stroke:#181818;stroke-width:1.0;"/><polygon fill="#181818" points="840.62,293.67,848.953,288.4201,843.4034,289.5163,842.3072,283.9667,840.62,293.67" style="stroke:#181818;stroke-width:1.0;"/><text fill="#000000" font-family="sans-serif" font-size="13" lengthAdjust="spacing" textLength="34" x="872" y="260.4951">Route</text></g><!--MD5=[15d837f45c041cd7136bf2512bfbb2f8]
link config to read_config--><g id="link_config_read_config"><path d="M924.72,216.03 C939.78,236.78 961.94,267.32 977.95,289.38 " fill="none" id="config-to-read_config" style="stroke:#181818;stroke-width:1.0;"/><polygon fill="#181818" points="981.07,293.67,979.0458,284.0314,978.1436,289.6159,972.5591,288.7137,981.07,293.67" style="stroke:#181818;stroke-width:1.0;"/><text fill="#000000" font-family="sans-serif" font-size="13" lengthAdjust="spacing" textLength="50" x="959" y="260.4951">Function</text></g><!--MD5=[09689c8002278360e0602b85cade6c78]
link config to save_config--><g id="link_config_save_config"><path d="M957.26,216.12 C976.33,225.23 998.28,235.91 1018,246 C1046.51,260.58 1078.08,277.67 1103.08,291.42 " fill="none" id="config-to-save_config" style="stroke:#181818;stroke-width:1.0;"/><polygon fill="#181818" points="1107.67,293.95,1101.7147,286.1056,1103.2898,291.5388,1097.8567,293.1139,1107.67,293.95" style="stroke:#181818;stroke-width:1.0;"/><text fill="#000000" font-family="sans-serif" font-size="13" lengthAdjust="spacing" textLength="50" x="1051" y="260.4951">Function</text></g><!--MD5=[2400ab77127e2ac5a8713f7f0d61c8f0]
link config to index--><g id="link_config_index"><path d="M967.14,198.72 C1044.21,206.69 1182.95,222.83 1300,246 C1382.48,262.33 1402.41,270.03 1483,294 C1487.09,295.22 1491.3,296.51 1495.53,297.85 " fill="none" id="config-to-index" style="stroke:#181818;stroke-width:1.0;"/><polygon fill="#181818" points="1500.5,299.42,1493.1316,292.8849,1495.7342,297.9075,1490.7117,300.5101,1500.5,299.42" style="stroke:#181818;stroke-width:1.0;"/><text fill="#000000" font-family="sans-serif" font-size="13" lengthAdjust="spacing" textLength="34" x="1380" y="260.4951">Route</text></g><!--MD5=[6f04277b250a805ecbe6702a0f20bbeb]
link config to edit--><g id="link_config_edit"><path d="M967.42,206.29 C1008,215.93 1062.77,230.03 1110,246 C1162.47,263.74 1174.36,271.56 1225,294 C1229.16,295.85 1233.51,297.82 1237.81,299.8 " fill="none" id="config-to-edit" style="stroke:#181818;stroke-width:1.0;"/><polygon fill="#181818" points="1242.46,301.95,1235.969,294.5428,1237.9215,299.852,1232.6122,301.8044,1242.46,301.95" style="stroke:#181818;stroke-width:1.0;"/><text fill="#000000" font-family="sans-serif" font-size="13" lengthAdjust="spacing" textLength="34" x="1157" y="260.4951">Route</text></g><!--MD5=[d7d9877e095a24ef23e7797c8026d448]
link config to delete_image--><g id="link_config_delete_image"><path d="M967.04,200.94 C1026.45,209.57 1120.42,225 1200,246 C1247.7,258.59 1300.24,277.09 1339.91,292.06 " fill="none" id="config-to-delete_image" style="stroke:#181818;stroke-width:1.0;"/><polygon fill="#181818" points="1344.69,293.86,1337.693,286.9288,1340.0148,292.0872,1334.8565,294.409,1344.69,293.86" style="stroke:#181818;stroke-width:1.0;"/><text fill="#000000" font-family="sans-serif" font-size="13" lengthAdjust="spacing" textLength="34" x="1257" y="260.4951">Route</text></g><!--MD5=[61727e9943b30fb78d217782f519f887]
link config to upload_image--><g id="link_config_upload_image"><path d="M848.94,192.43 C735.72,192.55 480.91,198.64 273,246 C227.04,256.47 177.26,275.93 140.78,291.84 " fill="none" id="config-to-upload_image" style="stroke:#181818;stroke-width:1.0;"/><polygon fill="#181818" points="135.94,293.96,145.7888,293.9915,140.5155,291.9439,142.5631,286.6706,135.94,293.96" style="stroke:#181818;stroke-width:1.0;"/><text fill="#000000" font-family="sans-serif" font-size="13" lengthAdjust="spacing" textLength="34" x="274" y="260.4951">Route</text></g><!--MD5=[d2b479f64d7a48ec3cc4424d18b02b16]
link file to root_folder_path--><g id="link_file_root_folder_path"><path d="M1948.99,214.18 C1899.26,235.66 1822.27,268.92 1769.41,291.76 " fill="none" id="file-to-root_folder_path" style="stroke:#181818;stroke-width:1.0;stroke-dasharray:7.0,7.0;"/><polygon fill="#181818" points="1764.69,293.8,1774.5383,293.9055,1769.2805,291.8184,1771.3677,286.5606,1764.69,293.8" style="stroke:#181818;stroke-width:1.0;"/><text fill="#000000" font-family="sans-serif" font-size="13" lengthAdjust="spacing" textLength="36" x="1872" y="260.4951">Define</text></g><!--MD5=[20c0cacf43db093e3577a64543156597]
link file to index--><g id="link_file_index"><path d="M1948.89,204.98 C1876.63,222.88 1737.63,258.31 1621,294 C1616.92,295.25 1612.72,296.57 1608.49,297.92 " fill="none" id="file-to-index" style="stroke:#181818;stroke-width:1.0;"/><polygon fill="#181818" points="1603.53,299.51,1613.3222,300.565,1608.2903,297.9804,1610.8749,292.9485,1603.53,299.51" style="stroke:#181818;stroke-width:1.0;"/><text fill="#000000" font-family="sans-serif" font-size="13" lengthAdjust="spacing" textLength="34" x="1786" y="260.4951">Route</text></g><!--MD5=[416f5a0d0b8ef386e88d9a83b0a639ba]
link file to download--><g id="link_file_download"><path d="M1974.04,216.03 C1952.18,237.04 1919.88,268.09 1896.88,290.2 " fill="none" id="file-to-download" style="stroke:#181818;stroke-width:1.0;"/><polygon fill="#181818" points="1893.27,293.67,1902.5318,290.3205,1896.8761,290.2065,1896.9901,284.5507,1893.27,293.67" style="stroke:#181818;stroke-width:1.0;"/><text fill="#000000" font-family="sans-serif" font-size="13" lengthAdjust="spacing" textLength="34" x="1942" y="260.4951">Route</text></g><!--MD5=[bcd7937ceb955bc288c56197eab96a65]
link file to preview--><g id="link_file_preview"><path d="M1998,216.03 C1998,236.52 1998,266.56 1998,288.55 " fill="none" id="file-to-preview" style="stroke:#181818;stroke-width:1.0;"/><polygon fill="#181818" points="1998,293.67,2002,284.67,1998,288.67,1994,284.67,1998,293.67" style="stroke:#181818;stroke-width:1.0;"/><text fill="#000000" font-family="sans-serif" font-size="13" lengthAdjust="spacing" textLength="34" x="1999" y="260.4951">Route</text></g><!--MD5=[caaf5eb36e91884a3b5db03ab502395c]
link file to browse--><g id="link_file_browse"><path d="M2020.66,216.03 C2041.25,236.95 2071.63,267.83 2093.36,289.93 " fill="none" id="file-to-browse" style="stroke:#181818;stroke-width:1.0;"/><polygon fill="#181818" points="2097.05,293.67,2093.6075,284.4424,2093.5504,290.0989,2087.8938,290.0418,2097.05,293.67" style="stroke:#181818;stroke-width:1.0;"/><text fill="#000000" font-family="sans-serif" font-size="13" lengthAdjust="spacing" textLength="34" x="2067" y="260.4951">Route</text></g><!--MD5=[988b3a9b51fdf81f8d77941273725e32]
link file to get_folder_structure--><g id="link_file_get_folder_structure"><path d="M2047.14,214.46 C2096.46,235.99 2172.38,269.14 2224.47,291.88 " fill="none" id="file-to-get_folder_structure" style="stroke:#181818;stroke-width:1.0;stroke-dasharray:7.0,7.0;"/><polygon fill="#181818" points="2229.12,293.91,2222.4695,286.6456,2224.5369,291.9112,2219.2714,293.9785,2229.12,293.91" style="stroke:#181818;stroke-width:1.0;"/><text fill="#000000" font-family="sans-serif" font-size="13" lengthAdjust="spacing" textLength="50" x="2158" y="260.4951">Function</text></g><!--MD5=[9177b885630cce507a35dd3b006af409]
@startuml 前端界面组件图

!define SPRITESURL https://raw.githubusercontent.com/umlet/umlet/dist/dist/sprites/

!define WEB $SPRITESURL/web/
!define CLOUD $SPRITESURL/cloud/
!define DB $SPRITESURL/db/
!define DEV $SPRITESURL/dev/
!define OFFICE $SPRITESURL/office/

!define LAYOUT_STRICTNESS_MAX
!define arrowColor #707070

!define COMPONENT_STYLE
!define COMPONENT_SPRITE $WEB/server_blue
!define CONTAINER_STYLE
!define CONTAINER_SPRITE $CLOUD/cloud

package "Flask App" {
  [Flask App] as flask
  [config_page] as config
  [file_page] as file
  [cam_page_async] as cam
  [detect_tasks_manager] as manager
  [SocketIO] as socketio
  [index.html] as index
  [async.html] as async

  [flask] - -> [config] : Blueprint
  [flask] - -> [file] : Blueprint
  [flask] - -> [cam] : Blueprint
  [flask] - -> [index] : render_template
  [flask] - -> [async] : render_template
  [flask] - -> [socketio] : SocketIO

  [cam] ..> [manager] : import
  [cam] ..> [gen_frame_stream] : import
  [socketio] - -> [manager] : gen_frame_stream
  
  [config] ..> [config_files] : Read/Write
  [config] ..> [is_bool] : Register Filter
  [config] ..> [is_int] : Register Filter
  [config] ..> [inject_enumerate] : Register Context Processor

  [config] - -> [get_facerec_image] : Route
  [config] - -> [read_config] : Function
  [config] - -> [save_config] : Function
  [config] - -> [index] : Route
  [config] - -> [edit] : Route
  [config] - -> [delete_image] : Route
  [config] - -> [upload_image] : Route
  
  
  [file] ..> [root_folder_path] : Define
  [file] - -> [index] : Route
  [file] - -> [download] : Route
  [file] - -> [preview] : Route
  [file] - -> [browse] : Route
  [file] ..> [get_folder_structure] : Function
}

@enduml

@startuml 前端界面组件图





package "Flask App" {
  [Flask App] as flask
  [config_page] as config
  [file_page] as file
  [cam_page_async] as cam
  [detect_tasks_manager] as manager
  [SocketIO] as socketio
  [index.html] as index
  [async.html] as async

  [flask] - -> [config] : Blueprint
  [flask] - -> [file] : Blueprint
  [flask] - -> [cam] : Blueprint
  [flask] - -> [index] : render_template
  [flask] - -> [async] : render_template
  [flask] - -> [socketio] : SocketIO

  [cam] ..> [manager] : import
  [cam] ..> [gen_frame_stream] : import
  [socketio] - -> [manager] : gen_frame_stream
  
  [config] ..> [config_files] : Read/Write
  [config] ..> [is_bool] : Register Filter
  [config] ..> [is_int] : Register Filter
  [config] ..> [inject_enumerate] : Register Context Processor

  [config] - -> [get_facerec_image] : Route
  [config] - -> [read_config] : Function
  [config] - -> [save_config] : Function
  [config] - -> [index] : Route
  [config] - -> [edit] : Route
  [config] - -> [delete_image] : Route
  [config] - -> [upload_image] : Route
  
  
  [file] ..> [root_folder_path] : Define
  [file] - -> [index] : Route
  [file] - -> [download] : Route
  [file] - -> [preview] : Route
  [file] - -> [browse] : Route
  [file] ..> [get_folder_structure] : Function
}

@enduml

PlantUML version 1.2022.7(Tue Aug 23 01:01:30 CST 2022)
(GPL source distribution)
Java Runtime: Java(TM) SE Runtime Environment
JVM: Java HotSpot(TM) 64-Bit Server VM
Default Encoding: UTF-8
Language: zh
Country: CN
--></g></svg>